<?xml version="1.0" encoding="utf-8"?>
<!-- Generator: Adobe Illustrator 26.1.0, SVG Export Plug-In . SVG Version: 6.00 Build 0)  -->
<svg version="1.1" id="logo" xmlns:svgjs="http://svgjs.com/svgjs"
	 xmlns="http://www.w3.org/2000/svg" xmlns:xlink="http://www.w3.org/1999/xlink" x="0px" y="0px" viewBox="0 0 492 462.7"
	 style="enable-background:new 0 0 492 462.7;" xml:space="preserve">
<style type="text/css">
	.st0{fill:none;stroke:#242424;stroke-width:22.0408;stroke-miterlimit:44.0816;}
	.st1{fill:#242424;}
</style>
<g>
	<path class="st0" d="M108.3,302.6h210.5c35.6,0,64.5-28.9,64.5-64.5V27.6H172.9c-35.6,0-64.5,28.9-64.5,64.5V302.6z"/>
</g>
<g>
	<path class="st1" d="M238.5,116.9h-10.7l-33.7,83.9l-33.9-83.9h-10.8v96h9.2v-80.1l31.3,80.1h8.2l31.2-80.4v80.4h9.1V116.9z
		 M347.6,116.9h-10.7l-33.7,83.9l-33.9-83.9h-10.8v96h9.2v-80.1l31.3,80.1h8.2l31.2-80.4v80.4h9.1V116.9z"/>
</g>
<g>
	<path class="st1" d="M41.1,347.6h-4.2l-13.3,34.7l-13.4-34.7H5.9v39.7h3.7v-33.1l12.4,33.1h3.3L37.5,354v33.2h3.6V347.6z M70,377.4
		l3.2,9.9h3.9l-13.4-39.6h-4.1l-13.4,39.6h3.9l3.3-9.9H70z M68.9,374.1H54.5l7.3-21.8L68.9,374.1z M109.1,349.8
		c-2.9-2.3-6.3-3.5-10.5-3.5c-3.4,0-6.5,0.9-9.2,2.6c-2.7,1.7-4.7,4.2-6.2,7.3C81.8,359.5,81,363,81,367s0.7,7.5,2.2,10.7
		c1.5,3.1,3.6,5.6,6.2,7.3c2.7,1.7,5.7,2.6,9.2,2.6c3.2,0,6.1-0.8,8.6-2.4c2.5-1.6,4.5-3.8,6-6.5c1.5-2.8,2.4-5.9,2.6-9.3v-3.6H97.7
		v3h15.1c-0.2,3.1-0.9,5.8-2.2,8.1s-2.9,4.1-4.9,5.3c-2,1.2-4.3,1.8-6.7,1.8c-2.8,0-5.2-0.7-7.3-2.1c-2.2-1.4-3.8-3.4-5.1-5.9
		c-1.2-2.6-1.8-5.6-1.8-9.1c0-3.4,0.6-6.4,1.8-9c1.2-2.6,2.9-4.5,5-5.9c2.1-1.4,4.5-2.1,7.1-2.1c3,0,5.6,0.8,7.9,2.5
		c2.2,1.7,3.8,3.9,4.7,6.6h3.8C113.9,355.2,111.9,352.1,109.1,349.8z M149.8,387.2v-40.5h-3.7v33.9l-19.9-33.9h-3.7v40.5h3.7v-33.9
		l19.9,33.9H149.8z M178.6,377.4l3.3,9.9h3.9l-13.4-39.6h-4.1l-13.4,39.6h3.9l3.3-9.9H178.6z M177.5,374.1h-14.4l7.3-21.8
		L177.5,374.1z M210.3,387.2h4.1l-10.3-17c3.2-0.4,5.7-1.6,7.4-3.6c1.7-2,2.6-4.7,2.6-8c0-3.6-1-6.5-3-8.7c-2-2.1-5.1-3.2-9.2-3.2
		h-11.1v40.5h3.7v-16.9h5.9L210.3,387.2z M194.5,367.3v-17.1h7.2c5.8,0,8.8,2.9,8.8,8.6c0,5.6-2.9,8.5-8.8,8.5H194.5z M268.8,347.6
		h-4.2l-13.3,34.7l-13.4-34.7h-4.3v39.7h3.7v-33.1l12.4,33.1h3.3l12.3-33.2v33.2h3.6V347.6z M297.7,377.4l3.3,9.9h3.9l-13.4-39.6
		h-4.1L274,387.2h3.9l3.3-9.9H297.7z M296.7,374.1h-14.5l7.3-21.8L296.7,374.1z M329.5,387.2h4.1l-10.3-17c3.2-0.4,5.7-1.6,7.4-3.6
		c1.7-2,2.6-4.7,2.6-8c0-3.6-1-6.5-3-8.7c-2-2.1-5.1-3.2-9.2-3.2H310v40.5h3.7v-16.9h5.9L329.5,387.2z M313.6,367.3v-17.1h7.2
		c5.8,0,8.8,2.9,8.8,8.6c0,5.6-2.9,8.5-8.8,8.5H313.6z M346.2,366.9l17.2-20.2h-4.5l-15.9,19v-19h-3.7v40.5h3.7v-19l15.9,19h4.5
		L346.2,366.9z M369.4,346.7h-4l13.5,40.5h4.5l13.5-40.5h-4l-11.8,35.8L369.4,346.7z M422.9,377.4l3.3,9.9h3.9l-13.4-39.6h-4.1
		l-13.4,39.6h3.9l3.3-9.9H422.9z M421.8,374.1h-14.4l7.3-21.8L421.8,374.1z M454.6,387.2h4.1l-10.3-17c3.2-0.4,5.7-1.6,7.4-3.6
		c1.7-2,2.6-4.7,2.6-8c0-3.6-1-6.5-3-8.7c-2-2.1-5.1-3.2-9.2-3.2h-11.1v40.5h3.7v-16.9h5.9L454.6,387.2z M438.8,367.3v-17.1h7.2
		c5.8,0,8.8,2.9,8.8,8.6c0,5.6-2.9,8.5-8.8,8.5H438.8z M485.8,346.7h-24.3v3.3h10.3v37.3h3.6V350h10.4V346.7z"/>
</g>
<g>
	<path class="st1" d="M168.8,425.2h5.6c2.8,0,5-0.7,6.5-2.2c1.5-1.5,2.2-3.6,2.2-6.4c0-2.8-0.7-4.9-2.1-6.4
		c-1.4-1.5-3.6-2.3-6.6-2.3h-7.3v30.7h1.7V425.2z M181.4,416.6c0,4.6-2.4,6.9-7.1,6.9h-5.5v-13.9h5.5c2.5,0,4.3,0.6,5.4,1.8
		C180.9,412.6,181.4,414.3,181.4,416.6z M201.9,416.1c-1.5-1-3.3-1.5-5.2-1.5c-1.9,0-3.6,0.5-5.2,1.5c-1.5,1-2.7,2.4-3.6,4.2
		c-0.9,1.8-1.3,4-1.3,6.4c0,2.5,0.4,4.6,1.3,6.4c0.9,1.8,2.1,3.3,3.6,4.2c1.5,1,3.2,1.5,5.2,1.5c1.9,0,3.7-0.5,5.2-1.5
		c1.5-1,2.7-2.4,3.6-4.2c0.9-1.8,1.3-4,1.3-6.5c0-2.5-0.4-4.6-1.3-6.4C204.7,418.4,203.5,417,201.9,416.1z M192.6,417.5
		c1.3-0.8,2.6-1.1,4.1-1.1c1.5,0,2.9,0.4,4.2,1.1c1.3,0.8,2.3,1.9,3.1,3.5c0.8,1.5,1.1,3.5,1.1,5.8c0,2.3-0.4,4.2-1.2,5.8
		c-0.8,1.6-1.8,2.7-3.1,3.5c-1.3,0.8-2.6,1.1-4.1,1.1c-1.5,0-2.9-0.4-4.1-1.1c-1.3-0.8-2.3-1.9-3.1-3.5c-0.8-1.6-1.2-3.5-1.2-5.8
		c0-2.3,0.4-4.2,1.2-5.8C190.3,419.4,191.3,418.2,192.6,417.5z M216.4,415.9c-1.3,1-2.3,2.4-2.8,4.2v-5.2H212v23.6h1.7v-13.5
		c0-3,0.7-5.1,2.1-6.5c1.4-1.3,3.1-2,5.2-2h0.6v-2.1C219.5,414.5,217.8,414.9,216.4,415.9z M227.9,416.7h6.1v-1.8h-6.1v-6h-1.7v6
		H223v1.8h3.2v15.2c0,2.4,0.4,4.1,1.3,5.1c0.9,1,2.2,1.5,4.1,1.5h2.3v-1.8h-2.1c-1.5,0-2.5-0.3-3.1-1c-0.6-0.7-0.9-2-0.9-3.9V416.7z
		 M242.3,409.2c0.8-0.9,2.2-1.3,4.3-1.3V406c-2.5,0-4.4,0.6-5.5,1.8c-1.2,1.2-1.7,3.1-1.7,5.6v1.4h-3.2v1.8h3.2v21.8h1.7v-21.8h5.5
		v-1.8h-5.5v-1.3C241.1,411.6,241.5,410.1,242.3,409.2z M265.1,416.1c-1.5-1-3.3-1.5-5.2-1.5c-1.9,0-3.6,0.5-5.2,1.5
		c-1.5,1-2.7,2.4-3.6,4.2c-0.9,1.8-1.3,4-1.3,6.4c0,2.5,0.4,4.6,1.3,6.4c0.9,1.8,2.1,3.3,3.6,4.2c1.5,1,3.2,1.5,5.2,1.5
		c1.9,0,3.7-0.5,5.2-1.5c1.5-1,2.7-2.4,3.6-4.2c0.9-1.8,1.3-4,1.3-6.5c0-2.5-0.4-4.6-1.3-6.4C267.8,418.4,266.6,417,265.1,416.1z
		 M255.8,417.5c1.3-0.8,2.7-1.1,4.1-1.1c1.5,0,2.9,0.4,4.2,1.1c1.3,0.8,2.3,1.9,3.1,3.5c0.8,1.5,1.1,3.5,1.1,5.8
		c0,2.3-0.4,4.2-1.2,5.8c-0.8,1.6-1.8,2.7-3.1,3.5c-1.3,0.8-2.6,1.1-4.1,1.1c-1.5,0-2.9-0.4-4.1-1.1c-1.3-0.8-2.3-1.9-3.1-3.5
		c-0.8-1.6-1.2-3.5-1.2-5.8c0-2.3,0.4-4.2,1.2-5.8C253.5,419.4,254.5,418.2,255.8,417.5z M276.8,406.4h-1.7v32.2h1.7V406.4z
		 M282.7,406.6c-0.3,0.3-0.4,0.7-0.4,1.2c0,0.5,0.1,0.9,0.4,1.2c0.3,0.3,0.6,0.5,1,0.5c0.4,0,0.8-0.2,1-0.5c0.3-0.3,0.4-0.7,0.4-1.2
		c0-0.5-0.1-0.9-0.4-1.2c-0.3-0.3-0.6-0.5-1-0.5C283.3,406.2,283,406.3,282.7,406.6z M284.6,414.9h-1.7v23.6h1.7V414.9z
		 M305.1,416.1c-1.5-1-3.3-1.5-5.2-1.5c-1.9,0-3.6,0.5-5.2,1.5c-1.5,1-2.7,2.4-3.6,4.2c-0.9,1.8-1.3,4-1.3,6.4
		c0,2.5,0.4,4.6,1.3,6.4c0.9,1.8,2.1,3.3,3.6,4.2c1.5,1,3.2,1.5,5.2,1.5c1.9,0,3.7-0.5,5.2-1.5c1.5-1,2.7-2.4,3.6-4.2
		c0.9-1.8,1.3-4,1.3-6.5c0-2.5-0.4-4.6-1.3-6.4C307.8,418.4,306.6,417,305.1,416.1z M295.7,417.5c1.3-0.8,2.6-1.1,4.1-1.1
		c1.5,0,2.9,0.4,4.2,1.1c1.3,0.8,2.3,1.9,3.1,3.5c0.8,1.5,1.1,3.5,1.1,5.8c0,2.3-0.4,4.2-1.2,5.8c-0.8,1.6-1.8,2.7-3.1,3.5
		c-1.3,0.8-2.6,1.1-4.1,1.1c-1.5,0-2.9-0.4-4.1-1.1c-1.3-0.8-2.3-1.9-3.1-3.5c-0.8-1.6-1.2-3.5-1.2-5.8c0-2.3,0.4-4.2,1.2-5.8
		C293.4,419.4,294.5,418.2,295.7,417.5z"/>
</g>
</svg>
