<?xml version="1.0" encoding="utf-8"?>
<!-- Generator: Adobe Illustrator 26.1.0, SVG Export Plug-In . SVG Version: 6.00 Build 0)  -->
<svg version="1.1" id="logo" xmlns:svgjs="http://svgjs.com/svgjs"
	 xmlns="http://www.w3.org/2000/svg" xmlns:xlink="http://www.w3.org/1999/xlink" x="0px" y="0px" viewBox="0 0 300.4 301.6"
	 style="enable-background:new 0 0 300.4 301.6;" xml:space="preserve">
<style type="text/css">
	.st0{fill:none;stroke:#242424;stroke-width:22.0408;stroke-miterlimit:44.0816;}
	.st1{fill:#242424;}
</style>
<g>
	<path class="st0" d="M13.1,288.8h210.5c35.6,0,64.5-28.9,64.5-64.5V13.8H77.6c-35.6,0-64.5,28.9-64.5,64.5V288.8z"/>
</g>
<g>
	<path class="st1" d="M143.3,103.1h-10.7L98.9,187L65,103.1H54.2v96h9.2V119l31.3,80.1h8.2l31.2-80.4v80.4h9.1V103.1z M252.3,103.1
		h-10.7L208,187l-33.9-83.9h-10.8v96h9.2V119l31.3,80.1h8.2l31.2-80.4v80.4h9.1V103.1z"/>
</g>
<g>
	<path class="st1" d="M390.5,336.2v-3.3"/>
</g>
</svg>
